<?xml version="1.0" encoding="utf-8"?>
<!-- Generator: Adobe Illustrator 22.0.0, SVG Export Plug-In . SVG Version: 6.00 Build 0)  -->
<svg version="1.1" id="Logo" xmlns="http://www.w3.org/2000/svg" xmlns:xlink="http://www.w3.org/1999/xlink" x="0px" y="0px"
	 viewBox="0 0 1920 1080" style="enable-background:new 0 0 1920 1080;" xml:space="preserve">
<style type="text/css">
	.st0{fill:#0000FF;}
	.st1{fill:#3366FF;}
	.st2{fill:#FFFFFF;}
	.st3{fill:#FFFF00;}
	.st4{fill:#339966;}
	.st5{fill:#FFFF00;stroke:#0000FF;stroke-width:2;stroke-miterlimit:10;}
	.st6{opacity:0.63;fill:none;stroke:#0000FF;stroke-width:2;stroke-miterlimit:10;}
	.st7{fill:#339966;stroke:url(#SVGID_1_);stroke-width:8;stroke-miterlimit:10;}
</style>
<g id="Calendar">
	<g id="Flag_1_">
		<rect x="577.8" y="167.2" class="st0" width="955.9" height="744.2"/>
		<rect x="579" y="242.9" class="st1" width="954.7" height="663.7"/>
		<rect x="579" y="408.8" class="st2" width="954.7" height="497.8"/>
		<rect x="579" y="574.8" class="st3" width="954.7" height="331.8"/>
		<rect x="579" y="740.7" class="st4" width="954.7" height="165.9"/>
		<path class="st5" d="M664.4,221.3L664.4,221.3c-17.9,0-32.5-14.5-32.5-32.5v-79.4c0-17.9,14.5-32.5,32.5-32.5h0
			c17.9,0,32.5,14.5,32.5,32.5v79.4C696.8,206.7,682.3,221.3,664.4,221.3z"/>
		<path class="st5" d="M1457.9,221.3L1457.9,221.3c-17.9,0-32.5-14.5-32.5-32.5v-79.4c0-17.9,14.5-32.5,32.5-32.5h0
			c17.9,0,32.5,14.5,32.5,32.5v79.4C1490.4,206.7,1475.8,221.3,1457.9,221.3z"/>
		<g id="Line">
			<line class="st6" x1="1532.3" y1="242.9" x2="1532.3" y2="911.4"/>
			<line class="st6" x1="1361.5" y1="242.9" x2="1361.5" y2="911.4"/>
			<line class="st6" x1="1193.2" y1="242.9" x2="1193.2" y2="911.4"/>
			<line class="st6" x1="1022.5" y1="242.9" x2="1022.5" y2="911.4"/>
			<line class="st6" x1="858.9" y1="242.9" x2="858.9" y2="911.4"/>
			<line class="st6" x1="688.2" y1="242.9" x2="688.2" y2="911.4"/>
		</g>
	</g>
	<g id="Words">
		<g>
			<g>
				<path class="st2" d="M737.3,225l-0.8,14h-16.2l7.1-66.6h25.3l7,66.6h-16.4l-0.8-14H737.3z M741.8,211.8
					c-0.3-5.1-1.5-22.5-1.8-26.1h-0.7c-0.1,2.9-1.1,19.6-1.4,26.1H741.8z"/>
				<path class="st2" d="M799.8,233c0,14.1-1.4,23.3-19.2,23.3c-11.5,0-17.2-5.6-17.2-14.8v-0.4h15.9v0.2c0,1.5,0.4,3.1,2.3,3.1
					c2.4,0,2.7-1.7,2.7-6.3v-6.8c-1.9,4.5-5.7,6-9.5,6c-8.8,0-11.6-6.6-11.6-15.9v-21.7c0-8.3,2.6-15.4,11.8-15.4
					c4.5,0,7.9,1.8,9.2,5.3c0.1-1.7,0.3-3.7,0.5-4.5H800c-0.1,3.4-0.2,9.9-0.2,17.8V233z M779.1,201.3V220c0,2.9,0.7,3.9,2.2,3.9
					s2.6-1.1,2.6-4v-18.8c0-1.6-0.3-3.5-2.3-3.5C779.9,197.6,779.1,198.8,779.1,201.3z"/>
				<path class="st2" d="M821.1,215.7v8.2c0,2.8,0.6,3.9,2.2,3.9c1.7,0,2.5-0.9,2.5-4.2v-3h15.3v1.7c0,10.3-4.1,17.6-18.2,17.6
					c-12.9,0-17.9-6.2-17.9-17.6v-20.5c0-11.9,7.5-17.5,18.2-17.5c10.5,0,18,5,18,17.5c0,3.9,0,10.4,0,13.9H821.1z M825.7,205.8
					v-5.5c0-2.7-0.3-4.3-2.3-4.3c-1.6,0-2.3,1.5-2.3,4.3v5.5H825.7z"/>
				<path class="st2" d="M845.9,200.3c0-7.2-0.1-13.9-0.2-15.2H861c0.3,1.7,0.4,3,0.5,4.2c1.5-2,4.6-5,10.3-5
					c8.1,0,10.7,5.5,10.7,13.3V239h-15.9v-37.6c0-1.7-0.2-3.9-2.2-3.9c-1.8,0-2.6,1.1-2.6,4.3V239h-15.9V200.3z"/>
				<path class="st2" d="M924.3,169.4v54.8c0,5.8,0.1,12.1,0.2,14.8h-14.9c-0.2-1.3-0.4-2.9-0.5-4.6c-2.7,4.3-5.8,5.5-10.3,5.5
					c-6.3,0-11.1-4.4-11.1-15.2v-24.6c0-8.3,2.7-15.8,12.2-15.8c3.7,0,7.1,1.3,8.5,4v-18.9H924.3z M903.6,201.5v21.4
					c0,2.3,0.7,3.8,2.4,3.8c1.5,0,2.4-1.4,2.4-3.9v-21.3c0-3-0.6-4-2.4-4C904.5,197.5,903.6,198.5,903.6,201.5z"/>
				<path class="st2" d="M965.5,225.2c0,7.5,0.2,11.1,0.5,13.8h-15.2c-0.5-0.8-0.8-3.2-0.9-4.2c-2.4,3.8-6,4.9-9.7,4.9
					c-8.3,0-11.5-7.4-11.5-15.9v-1.1c0-14.2,9.4-17.5,19.9-17.5c0.5,0,0.5,0,0.8,0v-6c0-2.9-0.7-3.6-2.1-3.6s-2.1,0.9-2.1,4.1v2.2
					h-14.9v-1.4c0-12,6.5-16.2,17.8-16.2c10.6,0,17.4,3.9,17.4,14.2V225.2z M949.4,215.3c-0.4,0-0.5,0-0.7,0c-2.6,0-4.1,1.8-4.1,6
					v0.4c0,4.1,1,5.2,2.5,5.2c1.7,0,2.3-1.5,2.3-4.2V215.3z"/>
			</g>
		</g>
		<g>
			<g>
				<path class="st4" d="M1069.1,559.8L1056,433.2h31.4l1.3,41.1c0.6,15.2,1.7,36.3,2.1,54.6h2.1c0.2-20,1.1-37.8,1.5-54.8l0.8-40.9
					h30.4l-13.7,126.6H1069.1z"/>
				<path class="st4" d="M1133.2,427.5h30.2V451h-30.2V427.5z M1133.2,457.3h30.2v102.5h-30.2V457.3z"/>
				<path class="st4" d="M1174.1,559.8V427.5h30.2v132.3H1174.1z"/>
				<path class="st4" d="M1245.2,427.5v37.3c4-5.3,10.5-8.9,18.8-8.9c16,0,20.9,10.8,20.9,25.9v78.1h-30.6v-71.5
					c0-4.2-0.6-7.4-4.2-7.4c-3,0-4.9,1.7-4.9,9.5v69.4h-30.2V427.5H1245.2z"/>
				<path class="st4" d="M1325.4,515.5v15.6c0,5.3,1.1,7.4,4.2,7.4c3.2,0,4.8-1.7,4.8-8v-5.7h29.1v3.2c0,19.6-7.8,33.5-34.6,33.5
					c-24.5,0-34-11.8-34-33.5v-39c0-22.6,14.3-33.3,34.6-33.3c20,0,34.2,9.5,34.2,33.3c0,7.4,0,19.8,0,26.4H1325.4z M1334.2,496.7
					v-10.5c0-5.1-0.6-8.2-4.4-8.2c-3,0-4.4,2.9-4.4,8.2v10.5H1334.2z"/>
				<path class="st4" d="M1372.6,486.2c0-13.7-0.2-26.4-0.4-28.9h29.1c0.6,3.2,0.8,5.7,1,8c2.9-3.8,8.7-9.5,19.6-9.5
					c15.4,0,20.3,10.5,20.3,25.3v78.7h-30.2v-71.5c0-3.2-0.4-7.4-4.2-7.4c-3.4,0-4.9,2.1-4.9,8.2v70.7h-30.2V486.2z"/>
				<path class="st4" d="M1520.5,533.6c0,14.3,0.4,21.1,1,26.2h-28.9c-1-1.5-1.5-6.1-1.7-8c-4.6,7.2-11.4,9.3-18.4,9.3
					c-15.8,0-21.9-14.1-21.9-30.2v-2.1c0-27,17.9-33.3,37.8-33.3c1,0,1,0,1.5,0v-11.4c0-5.5-1.3-6.8-4-6.8s-4,1.7-4,7.8v4.2h-28.3
					v-2.7c0-22.8,12.4-30.8,33.8-30.8c20.2,0,33.1,7.4,33.1,27V533.6z M1489.9,514.7c-0.8,0-1,0-1.3,0c-4.9,0-7.8,3.4-7.8,11.4v0.8
					c0,7.8,1.9,9.9,4.8,9.9c3.2,0,4.4-2.9,4.4-8V514.7z"/>
			</g>
		</g>
		<g>
			<g>
				<path class="st2" d="M837.4,338v9.2c0,17.8-3.8,35.3-32.2,35.3c-15.4,0-30.6-5.4-30.6-32.9v-53.8c0-24.6,13.5-32,31.3-32
					c28.2,0,31.5,18.9,31.5,31.9v10.7h-27.9v-13.7c0-4.7-0.3-7.4-3.6-7.4c-3.1,0-3.8,2.3-3.8,7.4v60.4c0,5.7,0.7,7.8,3.5,7.8
					c3.1,0,4-2.1,4-8.3V338H837.4z"/>
				<path class="st2" d="M908.6,348.1c0,18,0,27.2,0.3,32.7h-26.7c-0.5-2.4-0.7-5.4-0.9-7.3c-4.8,6.6-10.7,8.8-17.8,8.8
					c-9.5,0-18.4-4.3-18.4-23.5v-71.3h27.5v65.6c0,4,1,6.4,4,6.4c3.5,0,4.3-2.4,4.3-8.3v-63.7h27.5V348.1z"/>
				<path class="st2" d="M918.3,380.8V260.3h27.5v120.5H918.3z"/>
				<path class="st2" d="M951,287.5h8.5v-19.2h27v19.2h9.3v24.6h-9.3v40.3c0,4.2,0.7,5.5,5.4,5.5c0.5,0,1.7,0,2.8-0.2v22.2
					c-5.2,1.6-12.5,1.7-15.6,1.7c-16.3,0-20.3-6.9-20.3-22.5v-47.1H951V287.5z"/>
				<path class="st2" d="M1066.8,348.1c0,18,0,27.2,0.3,32.7h-26.7c-0.5-2.4-0.7-5.4-0.9-7.3c-4.8,6.6-10.7,8.8-17.8,8.8
					c-9.5,0-18.4-4.3-18.4-23.5v-71.3h27.5v65.6c0,4,1,6.4,4,6.4c3.5,0,4.3-2.4,4.3-8.3v-63.7h27.5V348.1z"/>
				<path class="st2" d="M1076.5,319.3c0-16.6-0.2-27-0.3-31.9h26.5c0.3,2.4,0.9,8.1,0.9,11.6c2.6-7.3,8.7-12.8,17.1-13v32
					c-11.9,0-16.6,2.8-16.6,11.6v51.1h-27.5V319.3z"/>
				<path class="st2" d="M1189,356.9c0,13,0.3,19.2,0.9,23.9h-26.3c-0.9-1.4-1.4-5.5-1.6-7.3c-4.2,6.6-10.4,8.5-16.8,8.5
					c-14.4,0-19.9-12.8-19.9-27.5v-1.9c0-24.6,16.3-30.3,34.5-30.3c0.9,0,0.9,0,1.4,0v-10.4c0-5-1.2-6.2-3.6-6.2s-3.6,1.6-3.6,7.1
					v3.8h-25.8v-2.4c0-20.8,11.3-28,30.8-28c18.4,0,30.1,6.8,30.1,24.6V356.9z M1161.2,339.8c-0.7,0-0.9,0-1.2,0
					c-4.5,0-7.1,3.1-7.1,10.4v0.7c0,7.1,1.7,9,4.3,9c2.9,0,4-2.6,4-7.3V339.8z"/>
				<path class="st2" d="M1198.7,380.8V260.3h27.5v120.5H1198.7z"/>
				<path class="st2" d="M1320.3,260.3v94.9c0,10,0.2,21,0.3,25.6h-25.8c-0.3-2.3-0.7-5-0.9-8c-4.7,7.4-10,9.5-17.8,9.5
					c-10.9,0-19.2-7.6-19.2-26.3v-42.6c0-14.4,4.7-27.4,21.1-27.4c6.4,0,12.3,2.3,14.7,6.9v-32.7H1320.3z M1284.4,315.9v37.1
					c0,4,1.2,6.6,4.2,6.6c2.6,0,4.2-2.4,4.2-6.8v-36.9c0-5.2-1-6.9-4.2-6.9C1286,308.9,1284.4,310.7,1284.4,315.9z"/>
				<path class="st2" d="M1357.1,340.5v14.2c0,4.8,1,6.8,3.8,6.8c2.9,0,4.3-1.6,4.3-7.3v-5.2h26.5v2.9c0,17.8-7.1,30.5-31.5,30.5
					c-22.3,0-31-10.7-31-30.5v-35.5c0-20.6,13-30.3,31.5-30.3c18.2,0,31.2,8.7,31.2,30.3c0,6.8,0,18,0,24.1H1357.1z M1365.1,323.3
					v-9.5c0-4.7-0.5-7.4-4-7.4c-2.8,0-4,2.6-4,7.4v9.5H1365.1z"/>
			</g>
		</g>
	</g>
</g>
<g id="Star">
	<linearGradient id="SVGID_1_" gradientUnits="userSpaceOnUse" x1="150.1711" y1="515.6436" x2="995.8289" y2="515.6436">
		<stop  offset="0" style="stop-color:#B9BF00"/>
		<stop  offset="0.279" style="stop-color:#E2E495;stop-opacity:0.9712"/>
		<stop  offset="0.4846" style="stop-color:#FFFFFF;stop-opacity:0.95"/>
		<stop  offset="0.5531" style="stop-color:#FFFCDD;stop-opacity:0.9434"/>
		<stop  offset="0.7749" style="stop-color:#FFF472;stop-opacity:0.9218"/>
		<stop  offset="0.9284" style="stop-color:#FFEE2F;stop-opacity:0.9069"/>
		<stop  offset="1" style="stop-color:#FFEC15;stop-opacity:0.9"/>
	</linearGradient>
	<polygon class="st7" points="987.8,516.9 769,390.6 769,391 699,391 698,391 697.9,322 696.7,322 570.3,103.9 444.5,323 445,323 
		445.1,391 377,391 377,390.6 158.2,516.9 377,643.1 377,643 446,643 446.3,710 447.2,710 573.9,927.4 698.6,708.9 699,708.9 
		699,708.3 699.2,708 699,708 698.7,643 699,643 769,643 769,643.1 	"/>
	<ellipse class="st0" cx="572.5" cy="518.1" rx="129.9" ry="127.4"/>
	<ellipse class="st2" cx="572.5" cy="520.3" rx="63.6" ry="62.4"/>
</g>
</svg>
